<?xml version="1.0" standalone="no"?>
<!DOCTYPE svg PUBLIC "-//W3C//DTD SVG 20010904//EN"
 "http://www.w3.org/TR/2001/REC-SVG-20010904/DTD/svg10.dtd">
<svg version="1.0" xmlns="http://www.w3.org/2000/svg"
 width="700.000000pt" height="700.000000pt" viewBox="0 0 700.000000 700.000000"
 preserveAspectRatio="xMidYMid meet">
<metadata>
Created by potrace 1.14, written by Peter Selinger 2001-2017
</metadata>
<g transform="translate(0.000000,700.000000) scale(0.100000,-0.100000)"
fill="#000000" stroke="none">
<path d="M0 3500 l0 -3500 3500 0 3500 0 0 3500 0 3500 -3500 0 -3500 0 0
-3500z m3700 2550 l0 -690 -165 0 -165 0 0 690 0 690 165 0 165 0 0 -690z
m-1165 -844 c127 -26 325 -56 510 -78 173 -20 840 -17 1030 5 166 19 427 61
520 83 104 24 95 43 95 -196 l0 -210 -1150 0 -1150 0 0 210 c0 161 3 210 13
210 6 0 66 -11 132 -24z m-922 -600 c670 -79 1221 -146 1223 -149 3 -2 -18
-440 -46 -973 -27 -533 -50 -980 -50 -994 -1 -25 -1 -25 -17 -5 -29 37 -151
300 -188 405 -118 340 -174 762 -148 1110 5 63 6 117 2 120 -4 3 -438 31 -966
63 -527 32 -959 60 -961 62 -4 4 -122 484 -122 496 0 5 12 9 28 9 15 0 575
-65 1245 -144z m5047 134 c0 -6 -28 -120 -61 -255 -42 -169 -66 -245 -75 -245
-7 0 -377 -22 -821 -50 -445 -27 -870 -52 -945 -56 -75 -4 -141 -10 -146 -13
-6 -4 -6 -63 0 -161 28 -437 -75 -975 -253 -1320 l-28 -55 -1 45 c-1 25 -23
448 -49 940 -26 492 -47 896 -46 897 2 4 2340 281 2383 282 23 0 42 -4 42 -9z
m-3250 -1895 l0 -1715 130 0 130 0 0 1715 0 1715 150 0 c147 0 150 0 154 -22
2 -13 43 -782 91 -1710 l87 -1687 -223 -338 c-122 -186 -255 -387 -295 -447
l-72 -108 -301 451 -301 451 0 340 c0 288 11 551 70 1682 39 738 70 1352 70
1365 l0 23 155 0 155 0 0 -1715z m-2085 1090 c418 -26 770 -48 783 -51 21 -4
22 -8 22 -134 0 -72 -4 -130 -8 -130 -4 0 -308 -25 -675 -55 -367 -30 -684
-55 -706 -55 l-39 0 -46 109 c-25 60 -66 166 -91 235 -44 124 -44 126 -22 126
12 0 364 -20 782 -45z m5145 36 c0 -17 -72 -216 -122 -338 l-50 -123 -35 0
c-20 0 -337 25 -705 55 -368 30 -673 55 -679 55 -6 0 -9 50 -7 132 l3 133 745
46 c829 52 850 53 850 40z m-4287 -747 c15 -81 26 -148 24 -150 -2 -2 -258
-60 -568 -128 l-564 -123 -20 23 c-36 42 -233 399 -225 408 3 2 298 29 655 59
358 30 655 55 660 56 6 0 23 -65 38 -145z m3362 85 c341 -28 621 -52 624 -54
5 -5 -104 -209 -177 -331 -35 -60 -64 -98 -73 -97 -45 7 -1123 244 -1127 248
-3 2 5 53 16 112 12 59 24 125 28 145 6 37 6 37 48 32 22 -2 320 -27 661 -55z
m-198 -620 c238 -52 433 -97 433 -101 0 -5 -199 -272 -258 -347 l-19 -23 -439
177 c-241 98 -441 179 -443 181 -2 2 14 50 37 106 22 57 43 113 46 124 l7 21
102 -22 c56 -12 297 -64 534 -116z m-3013 10 c26 -66 46 -122 44 -123 -1 -2
-201 -83 -442 -181 l-440 -178 -23 29 c-38 45 -218 286 -238 317 -10 15 -16
29 -14 31 8 6 1014 224 1040 225 23 1 29 -8 73 -120z"/>
</g>
</svg>
